HIERARCHY
ROOT Hips
{
	OFFSET 0.000000 0.000000 0.000000
	CHANNELS 6 Xposition Yposition Zposition Zrotation Yrotation Xrotation 
	JOINT LowerBack
	{
		OFFSET 0.000000 0.000000 0.000000
		CHANNELS 3 Zrotation Yrotation Xrotation
		JOINT Spine
		{
			OFFSET 0.028270 2.035590 -0.193380
			CHANNELS 3 Zrotation Yrotation Xrotation
			JOINT Spine1
			{
				OFFSET 0.056720 2.048850 -0.042750
				CHANNELS 3 Zrotation Yrotation Xrotation
				JOINT Neck
				{
					OFFSET 0.000000 0.000000 0.000000
					CHANNELS 3 Zrotation Yrotation Xrotation
					JOINT Neck1
					{
						OFFSET -0.054170 1.746240 0.172020
						CHANNELS 3 Zrotation Yrotation Xrotation
						JOINT Head
						{
							OFFSET 0.104070 1.761360 -0.123970
							CHANNELS 3 Zrotation Yrotation Xrotation
							End Site
							{
								OFFSET 0.000000 0.000000 0.000000
							}
						}
					}
				}
				JOINT LeftShoulder
				{
					OFFSET 0.000000 0.000000 0.000000
					CHANNELS 3 Zrotation Yrotation Xrotation
					JOINT LeftArm
					{
						OFFSET 3.362410 1.200890 -0.311210
						CHANNELS 3 Zrotation Yrotation Xrotation
						JOINT LeftForeArm
						{
							OFFSET 4.983000 -0.000000 -0.000000
							CHANNELS 3 Zrotation Yrotation Xrotation
							JOINT LeftHand
							{
								OFFSET 3.483560 -0.000000 -0.000000
								CHANNELS 3 Zrotation Yrotation Xrotation
								JOINT LeftFingerBase
								{
									OFFSET 0.000000 0.000000 0.000000
									CHANNELS 3 Zrotation Yrotation Xrotation
									JOINT LeftHandIndex1
									{
										OFFSET 0.715260 -0.000000 -0.000000
										CHANNELS 3 Zrotation Yrotation Xrotation
										End Site
										{
											OFFSET 0.000000 0.000000 0.000000
										}
									}
								}
								JOINT LThumb
								{
									OFFSET 0.000000 0.000000 0.000000
									CHANNELS 3 Zrotation Yrotation Xrotation
									End Site
									{
										OFFSET 0.000000 0.000000 0.000000
									}
								}
							}
						}
					}
				}
				JOINT RightShoulder
				{
					OFFSET 0.000000 0.000000 0.000000
					CHANNELS 3 Zrotation Yrotation Xrotation
					JOINT RightArm
					{
						OFFSET -3.136600 1.374050 -0.404650
						CHANNELS 3 Zrotation Yrotation Xrotation
						JOINT RightForeArm
						{
							OFFSET -5.241900 -0.000000 -0.000000
							CHANNELS 3 Zrotation Yrotation Xrotation
							JOINT RightHand
							{
								OFFSET -3.444170 -0.000000 -0.000000
								CHANNELS 3 Zrotation Yrotation Xrotation
								JOINT RightFingerBase
								{
									OFFSET 0.000000 0.000000 0.000000
									CHANNELS 3 Zrotation Yrotation Xrotation
									JOINT RightHandIndex1
									{
										OFFSET -0.622530 -0.000000 -0.000000
										CHANNELS 3 Zrotation Yrotation Xrotation
										End Site
										{
											OFFSET 0.000000 0.000000 0.000000
										}
									}
								}
								JOINT RThumb
								{
									OFFSET 0.000000 0.000000 0.000000
									CHANNELS 3 Zrotation Yrotation Xrotation
									End Site
									{
										OFFSET 0.000000 0.000000 0.000000
									}
								}
							}
						}
					}
				}
			}
		}
	}
}
}
MOTION
Frames: 7
Frame Time: 0.008333
2.810616 16.411657 1.367453 -175.994730 -68.607220 -144.323664 6.659968 -6.186573 0.948441 1.387471 -6.525273 -2.172286 -4.694313 -6.602314 3.251482 16.075054 -17.599053 -12.502831 1.005689 0.209680 -1.665692 0.000000 0.000000 0.000000 31.840137 8.170314 5.580163 34.402743 -35.450495 -128.173640 4.317336 -1.157658 -0.107853 15.228786 -6.835281 -1.032360 -0.489950 0.626925 -0.000000 0.000000 0.000000 0.000000 0.000000 0.000000 0.000000 1.881015 -15.950808 -2.911934 73.131914 12.841549 26.385068 -178.819554 61.807784 179.863535 -15.233480 8.072152 -1.194488 0.283108 -0.682298 0.000000 0.000000 0.000000 0.000000 0.000000 0.000000 0.000000 
2.823912 16.411637 1.364732 -176.521538 -68.351096 -143.754478 6.596248 -6.174962 1.114029 1.370764 -6.507598 -2.161216 -4.672376 -6.588445 3.120820 15.881951 -17.655848 -12.261978 0.913509 0.196524 -1.597068 0.000000 0.000000 0.000000 31.445542 7.883740 5.158065 32.989856 -35.795999 -121.081972 3.889072 -3.700941 -0.108754 13.437682 -5.796572 -0.784447 -0.420299 0.641223 -0.000000 0.000000 0.000000 0.000000 0.000000 0.000000 0.000000 1.826332 -15.845116 -2.824995 73.289141 12.313169 26.115755 -178.831082 61.853262 179.862771 -15.266236 8.052904 -1.194739 0.284415 -0.684476 0.000000 0.000000 0.000000 0.000000 0.000000 0.000000 0.000000 
2.837536 16.410436 1.362331 -177.021692 -68.120276 -143.207017 6.576206 -6.157551 1.263019 1.354554 -6.488700 -2.153953 -4.675332 -6.573812 2.968715 15.662473 -17.717190 -11.960447 0.809162 0.181058 -1.510877 0.000000 0.000000 0.000000 31.162966 7.461027 4.665771 30.800960 -35.997479 -112.986984 3.411815 -6.906963 -0.109913 12.112475 -4.644831 -0.581192 -0.367845 0.653018 -0.000000 0.000000 0.000000 0.000000 0.000000 0.000000 0.000000 1.764109 -15.766862 -2.718843 73.457491 11.837885 25.904701 -178.854750 61.920233 179.862112 -15.294640 8.041865 -1.195882 0.286472 -0.687064 0.000000 0.000000 0.000000 0.000000 0.000000 0.000000 0.000000 
2.850781 16.408069 1.360378 -177.488342 -67.909923 -142.684146 6.605329 -6.132420 1.390468 1.339236 -6.466927 -2.150510 -4.709794 -6.556683 2.803243 15.428971 -17.776820 -11.613855 0.696356 0.163985 -1.411734 0.000000 0.000000 0.000000 30.915236 6.963972 4.143545 28.146820 -35.960476 -104.916234 2.971585 -10.654204 -0.112178 11.251142 -3.543373 -0.428398 -0.328827 0.663989 0.000000 0.000000 0.000000 0.000000 0.000000 0.000000 0.000000 1.706665 -15.717701 -2.598712 73.622957 11.418716 25.750964 -178.890247 61.999592 179.861656 -15.311388 8.040703 -1.197623 0.289085 -0.689891 0.000000 0.000000 0.000000 0.000000 0.000000 0.000000 0.000000 
2.862699 16.404501 1.359024 -177.907751 -67.717371 -142.190864 6.682924 -6.098853 1.494507 1.324445 -6.441277 -2.150309 -4.779635 -6.535849 2.632854 15.198824 -17.831476 -11.240070 0.578906 0.146068 -1.304922 0.000000 0.000000 0.000000 30.653883 6.459912 3.618026 25.292709 -35.708489 -97.522113 2.612540 -14.832653 -0.115922 10.781736 -2.513971 -0.310870 -0.298595 0.673347 0.000000 0.000000 0.000000 0.000000 0.000000 0.000000 0.000000 1.672193 -15.696826 -2.469404 73.766105 11.058904 25.649944 -178.937508 62.080394 179.861486 -15.313271 8.046810 -1.199161 0.292280 -0.692759 0.000000 0.000000 0.000000 0.000000 0.000000 0.000000 0.000000 
2.872847 16.399747 1.358288 -178.276913 -67.539496 -141.727366 6.807136 -6.057218 1.575301 1.310528 -6.411677 -2.153469 -4.883340 -6.511207 2.461515 14.982038 -17.876689 -10.852931 0.459916 0.127905 -1.194521 0.000000 0.000000 0.000000 30.362148 5.988065 3.101055 22.361026 -35.300551 -91.012145 2.332792 -19.378841 -0.121089 10.623918 -1.499594 -0.209410 -0.274094 0.679202 -0.000000 0.000000 0.000000 0.000000 0.000000 0.000000 0.000000 1.665861 -15.696932 -2.333883 73.876143 10.754089 25.593748 -178.995374 62.152690 179.861621 -15.297761 8.059008 -1.200197 0.295982 -0.695646 0.000000 0.000000 0.000000 0.000000 0.000000 0.000000 0.000000 
2.880825 16.393796 1.358183 -178.592167 -67.375017 -141.293825 6.973195 -6.008286 1.634476 1.298181 -6.378229 -2.159829 -5.015249 -6.482859 2.292661 14.785234 -17.911695 -10.465898 0.341508 0.109986 -1.084512 0.000000 0.000000 0.000000 30.032984 5.573182 2.600590 19.414506 -34.799844 -85.408423 2.109473 -24.231217 -0.127201 10.694393 -0.461206 -0.110921 -0.253108 0.680676 -0.000000 0.000000 0.000000 0.000000 0.000000 0.000000 0.000000 1.690412 -15.713159 -2.194262 73.943492 10.500019 25.575119 -179.062745 62.210305 179.862048 -15.266709 8.073366 -1.200434 0.300246 -0.698479 0.000000 0.000000 0.000000 0.000000 0.000000 0.000000 0.000000 
